<?xml version="1.0" standalone="no"?>
<!DOCTYPE svg PUBLIC "-//W3C//DTD SVG 20010904//EN"
 "http://www.w3.org/TR/2001/REC-SVG-20010904/DTD/svg10.dtd">
<svg version="1.0" xmlns="http://www.w3.org/2000/svg"
 width="290.000000pt" height="290.000000pt" viewBox="0 0 290.000000 290.000000"
 preserveAspectRatio="xMidYMid meet">
<metadata>
Created by potrace 1.14, written by Peter Selinger 2001-2017
</metadata>
<g transform="translate(0.000000,290.000000) scale(0.100000,-0.100000)"
fill="#000000" stroke="none">
<path d="M1281 2320 c-21 -72 -87 -88 -166 -40 -16 10 -41 21 -55 25 -22 7
-20 3 16 -41 90 -108 173 -271 203 -401 7 -28 19 -54 27 -57 12 -5 14 35 14
258 0 146 -3 271 -6 280 -10 26 -20 18 -33 -24z"/>
<path d="M625 2321 c-108 -51 -211 -164 -250 -276 -26 -75 -31 -216 -11 -295
22 -86 93 -197 169 -265 60 -53 206 -150 271 -180 17 -8 40 -20 51 -27 11 -7
36 -22 55 -34 163 -98 206 -142 239 -241 40 -119 17 -268 -55 -351 -43 -51
-30 -53 54 -9 150 79 242 214 272 401 17 105 -17 248 -80 341 -26 38 -128 137
-187 181 -28 21 -299 174 -308 174 -17 0 -129 83 -176 130 -42 43 -60 71 -73
114 -37 116 -2 264 80 335 43 38 28 38 -51 2z"/>
<path d="M1880 2311 c0 -10 35 -21 69 -21 33 0 85 -34 99 -66 29 -62 -23 -135
-213 -299 -38 -33 -78 -69 -90 -80 -12 -11 -55 -49 -95 -85 -41 -36 -97 -85
-125 -110 -27 -25 -68 -61 -90 -80 -65 -54 -71 -67 -48 -98 60 -82 345 -478
390 -544 65 -93 107 -181 98 -207 -9 -28 -40 -53 -77 -60 -19 -4 -34 -14 -36
-24 -3 -16 22 -17 355 -17 351 0 433 4 433 21 0 4 -19 13 -41 19 -108 29 -181
108 -441 475 -16 22 -52 72 -81 112 -28 40 -92 129 -142 198 -49 70 -105 146
-123 171 -18 25 -32 51 -30 58 2 8 55 60 118 116 189 168 251 224 324 289 163
146 227 189 324 217 6 2 12 8 12 14 0 7 -99 10 -295 10 -164 0 -295 -4 -295
-9z"/>
<path d="M350 905 c0 -345 1 -350 55 -279 15 20 43 43 63 51 33 14 40 13 111
-13 42 -15 80 -31 86 -35 5 -5 13 -9 18 -9 5 0 -8 21 -30 48 -96 118 -202 315
-250 464 -48 149 -53 127 -53 -227z"/>
</g>
</svg>
